<svg xmlns="http://www.w3.org/2000/svg" xml:space="preserve" style="fill-rule:evenodd;clip-rule:evenodd;stroke-linejoin:round;stroke-miterlimit:1.41421" viewBox="0 0 504 99"><path d="M214.53 15.651a41.675 41.675 0 0 0-13.17-9 40.107 40.107 0 0 0-16-3.25 41.327 41.327 0 0 0-15.11 2.83 41.78 41.78 0 0 0-12.94 8l-6.65-7.72a3.812 3.812 0 0 0-2.85-1.31h-.21a3.788 3.788 0 0 0-3.77 3.77V94.381c-.006 2.075 1.695 3.789 3.77 3.8h16.08c2.075-.006 3.78-1.715 3.78-3.79v-49.28a17.432 17.432 0 0 1 1.38-6.9 17.68 17.68 0 0 1 3.8-5.68 17.895 17.895 0 0 1 12.73-5.2 17.06 17.06 0 0 1 6.83 1.38 17.872 17.872 0 0 1 9.43 9.49 17.637 17.637 0 0 1 1.38 6.9v49.34a3.818 3.818 0 0 0 3.78 3.8h16.06c2.075-.011 3.776-1.725 3.77-3.8v-49.33a41.007 41.007 0 0 0-3.24-16.2 42.445 42.445 0 0 0-8.85-13.26Zm182.41-10.21h-63.36a3.797 3.797 0 0 0-3.76 3.79v16.01c0 2.064 1.696 3.764 3.76 3.77h4c2.075.005 3.78 1.715 3.78 3.79v23.82a40.925 40.925 0 0 0 3.23 16.15 42.173 42.173 0 0 0 22.14 22.19 39.994 39.994 0 0 0 16.1 3.26h14.15c2.075-.006 3.78-1.715 3.78-3.79V78.411a3.798 3.798 0 0 0-3.78-3.78h-14.19a17.622 17.622 0 0 1-7-1.43 18.352 18.352 0 0 1-5.7-3.85 17.81 17.81 0 0 1-3.81-5.69 17.592 17.592 0 0 1-1.37-7v-23.82a3.807 3.807 0 0 1 3.77-3.79h28.29a3.798 3.798 0 0 0 3.78-3.78V9.231a3.808 3.808 0 0 0-3.79-3.79h-.02Zm103-1.72h-.16a3.751 3.751 0 0 0-2.93 1.39l-5.55 6.65a3.764 3.764 0 0 1-5.32.48 62.953 62.953 0 0 0-4.24-3.29 53.031 53.031 0 0 0-7.92-4.69 46.618 46.618 0 0 0-8.56-3.13 36.218 36.218 0 0 0-8.92-1.13 47.219 47.219 0 0 0-18.4 3.61 45.888 45.888 0 0 0-15.09 10.08 47.862 47.862 0 0 0-10.18 15.58 52.097 52.097 0 0 0-3.71 19.93 54.554 54.554 0 0 0 3.71 20.75 45.192 45.192 0 0 0 10.18 15.41 43.65 43.65 0 0 0 15.06 9.59 50.9 50.9 0 0 0 18.4 3.31 35.347 35.347 0 0 0 8.87-1.14 48.419 48.419 0 0 0 8.53-3.08 52.244 52.244 0 0 0 7.92-4.61c1.42-1 2.78-2 4.11-3.09a3.753 3.753 0 0 1 5.42.73l5.66 7.87a3.772 3.772 0 0 0 3.07 1.582 3.788 3.788 0 0 0 3.77-3.77V7.501a3.797 3.797 0 0 0-3.75-3.79l.03.01Zm-21.88 54.9a27.157 27.157 0 0 1-5.06 8.07 25.303 25.303 0 0 1-7.49 5.64 20.505 20.505 0 0 1-9.14 2.12 25.257 25.257 0 0 1-9.12-1.65 20.514 20.514 0 0 1-7.44-4.87 22.791 22.791 0 0 1-5-7.93 33.064 33.064 0 0 1 0-21.63 23.135 23.135 0 0 1 5-7.93 20.696 20.696 0 0 1 7.44-4.86 25.347 25.347 0 0 1 9.12-1.65c3.17-.014 6.3.712 9.14 2.12a24.856 24.856 0 0 1 7.49 5.64 27.197 27.197 0 0 1 5.06 8.07 25.007 25.007 0 0 1 0 18.88v-.02Zm-458-53.35H3.78A3.798 3.798 0 0 0 0 9.051v85.4a3.818 3.818 0 0 0 3.79 3.8h16.24c2.075-.006 3.78-1.715 3.78-3.79V9.051c0-2.07-1.7-3.775-3.77-3.78h.02Zm66.5 6.44a3.8 3.8 0 0 0 .912-2.47 3.818 3.818 0 0 0-3.772-3.8H65.46a3.75 3.75 0 0 0-2.86 1.33l-36.65 42.61a3.784 3.784 0 0 0 0 5l36.65 42.6a3.753 3.753 0 0 0 2.86 1.32h18.22c2.077-.011 3.781-1.723 3.781-3.8a3.8 3.8 0 0 0-.921-2.48l-32.55-37.65a3.804 3.804 0 0 1 0-5l32.57-37.66Zm35.41-6.45h-.2c-1.1 0-2.146.483-2.86 1.32l-.76.89-15.11 17.51a3.746 3.746 0 0 0-.92 2.48v67.01c0 2.07 1.7 3.774 3.77 3.78h16.06a3.808 3.808 0 0 0 3.77-3.79V9.051a3.807 3.807 0 0 0-3.77-3.79h.02Zm193.16 43.5a28.992 28.992 0 0 0-9.35-5.69 31.991 31.991 0 0 0-11.42-2h-24.61a5.595 5.595 0 0 1-4.16-1.78 5.943 5.943 0 0 1-1.73-4.3c.011-3.229 2.661-5.884 5.89-5.9h44.1a3.798 3.798 0 0 0 3.77-3.78V9.221c0-2.07-1.7-3.775-3.77-3.78h-44.11a28.996 28.996 0 0 0-11.52 2.3 29.197 29.197 0 0 0-15.61 15.66 30.157 30.157 0 0 0 0 23.1 29.739 29.739 0 0 0 15.61 15.8 28.499 28.499 0 0 0 11.52 2.34h25.38a5.08 5.08 0 0 1 5.07 4.53c.014.15.02.3.02.45 0 2.743-2.257 5-5 5h-51.14a3.787 3.787 0 0 0-3.76 3.77V94.411c0 2.064 1.696 3.764 3.76 3.77h50.24a29.194 29.194 0 0 0 20.77-8.63 30.678 30.678 0 0 0 6.32-9.38 28.633 28.633 0 0 0 2.34-11.5 26.582 26.582 0 0 0-2.34-11.19 27.301 27.301 0 0 0-6.29-8.71l.02-.01Z" style="fill:#fff;fill-rule:nonzero"/></svg>